<?xml version="1.0" encoding="utf-8"?>
<!-- Generator: Adobe Illustrator 23.0.2, SVG Export Plug-In . SVG Version: 6.00 Build 0)  -->
<svg version="1.1" id="Layer_1" xmlns="http://www.w3.org/2000/svg" xmlns:xlink="http://www.w3.org/1999/xlink" x="0px" y="0px"
	 viewBox="0 0 800.1 410" style="enable-background:new 0 0 800.1 410;" xml:space="preserve">
<style type="text/css">
	.st0{fill:none;stroke:#343741;stroke-width:2;stroke-miterlimit:10;}
	.st1{fill:none;stroke:#343741;stroke-width:2;stroke-miterlimit:10;stroke-dasharray:1.9946,5.9837;}
	.st2{fill:none;stroke:#343741;stroke-width:2;stroke-miterlimit:10;stroke-dasharray:1.9982,5.9947;}
	.st3{opacity:7.000000e-02;fill:#343741;enable-background:new    ;}
	.st4{opacity:5.000000e-02;fill:#343741;enable-background:new    ;}
	.st5{fill:none;stroke:#343741;stroke-miterlimit:10;}
	.st6{fill:#343741;}
	.st7{fill:#1E384C;}
	.st8{fill:#FFC72B;}
	.st9{fill:#00B7AF;}
	.st10{enable-background:new    ;}
	.st11{fill:#535966;}
	.st12{fill:#999999;}
	.st13{fill:#FFFFFF;}
	.st14{fill:#00BFB3;}
	.st15{fill:#005571;}
	.st16{fill:#13A7DF;}
	.st17{fill:#759C3E;}
	.st18{fill-opacity:0.3;}
	.st19{fill:#FFFFFF;fill-opacity:0.3;}
	.st20{fill:#D9A741;}
	.st21{fill:#876929;}
	.st22{fill:#624A1E;}
	.st23{fill:#FAD791;}
	.st24{fill:#9D5025;}
	.st25{fill:#F68536;}
	.st26{fill:#6B3A19;}
	.st27{fill:#FBBF93;}
	.st28{fill:#FCBF92;}
	.st29{fill:#F68534;}
</style>
<g>
	<g>
		<polyline class="st0" points="15,12.3 15,11.3 16,11.3 		"/>
		<line class="st1" x1="22" y1="11.3" x2="489.7" y2="11.3"/>
		<polyline class="st0" points="492.7,11.3 493.7,11.3 493.7,12.3 		"/>
		<line class="st2" x1="493.7" y1="18.3" x2="493.7" y2="391"/>
		<polyline class="st0" points="493.7,394 493.7,395 492.7,395 		"/>
		<line class="st1" x1="486.7" y1="395" x2="19" y2="395"/>
		<polyline class="st0" points="16,395 15,395 15,394 		"/>
		<line class="st2" x1="15" y1="388" x2="15" y2="15.3"/>
	</g>
</g>
<path class="st3" d="M293.8,33h177.9v338.9H293.8V33z"/>
<path class="st4" d="M314.1,176.1h138.3v175.3H314.1V176.1z"/>
<path class="st5" d="M314.1,176.1h138.3v175.3H314.1V176.1z"/>
<g>
	<g>
		<line class="st5" x1="160.7" y1="243.1" x2="301.9" y2="242.6"/>
		<g>
			<polygon class="st6" points="300.4,247.5 309,242.5 300.4,237.6 			"/>
		</g>
	</g>
</g>
<g>
	<g>
		<polyline class="st5" points="453.8,311.1 542,311.1 542,205.1 597.1,205.1 		"/>
		<g>
			<polygon class="st6" points="595.6,210.1 604.3,205.1 595.6,200.1 			"/>
		</g>
	</g>
</g>
<path class="st6" d="M184.1,231.4h76.3v20.8h-76.3L184.1,231.4L184.1,231.4z"/>
<g>
	<g>
		<line class="st5" x1="160.7" y1="311.1" x2="301.9" y2="310.5"/>
		<g>
			<polygon class="st6" points="300.4,315.5 309,310.5 300.4,305.5 			"/>
		</g>
	</g>
</g>
<g>
	<g>
		<polyline class="st5" points="160.7,157.9 251.4,157.9 251.4,213.4 301.5,213.4 		"/>
		<g>
			<polygon class="st6" points="300.1,218.4 308.7,213.4 300.1,208.4 			"/>
		</g>
	</g>
</g>
<g>
	<g>
		<polyline class="st5" points="160.7,62.9 271.4,62.9 271.4,193.4 301.5,193.4 		"/>
		<g>
			<polygon class="st6" points="300.1,198.4 308.7,193.4 300.1,188.4 			"/>
		</g>
	</g>
</g>
<path class="st6" d="M333.7,339.4H432v20.8h-98.3V339.4z"/>
<g>
	<g>
		<g>
			<g>
				<path d="M658.7,210.2c-1.8,0-3.1-0.5-4.1-1.5s-1.5-2.4-1.5-4.2s0.5-3.3,1.4-4.4s2.2-1.6,3.8-1.6c1.5,0,2.7,0.5,3.5,1.4
					c0.9,0.9,1.3,2.2,1.3,3.7v1.3h-7.5c0,1.1,0.3,1.9,0.9,2.5c0.6,0.6,1.3,0.9,2.4,0.9c0.7,0,1.3-0.1,1.9-0.2
					c0.6-0.1,1.2-0.3,1.9-0.6v2c-0.6,0.3-1.2,0.5-1.8,0.6C660.1,210.2,659.5,210.2,658.7,210.2z M658.3,200.3
					c-0.8,0-1.4,0.2-1.8,0.7s-0.7,1.2-0.8,2.1h5.1c0-0.9-0.2-1.6-0.7-2.1C659.6,200.6,659,200.3,658.3,200.3z"/>
				<path d="M668.2,210h-2.4v-15.9h2.4V210z"/>
				<path d="M678.7,210l-0.5-1.6h-0.1c-0.5,0.7-1.1,1.2-1.6,1.4c-0.6,0.2-1.3,0.4-2.1,0.4c-1.1,0-2-0.3-2.6-0.9s-0.9-1.4-0.9-2.5
					c0-1.2,0.4-2,1.3-2.6s2.2-0.9,4-1l2-0.1v-0.6c0-0.7-0.2-1.3-0.5-1.6c-0.3-0.4-0.9-0.5-1.6-0.5c-0.6,0-1.1,0.1-1.7,0.3
					c-0.5,0.2-1,0.4-1.5,0.6l-0.9-1.8c0.6-0.3,1.3-0.6,2-0.7c0.7-0.2,1.4-0.3,2.1-0.3c1.4,0,2.5,0.3,3.3,0.9s1.1,1.6,1.1,3v7.6
					H678.7z M675.1,208.4c0.9,0,1.6-0.2,2.1-0.7s0.8-1.2,0.8-2v-1l-1.5,0.1c-1.1,0-2,0.2-2.5,0.6c-0.5,0.3-0.8,0.9-0.8,1.5
					c0,0.5,0.1,0.9,0.4,1.2S674.5,208.4,675.1,208.4z"/>
				<path d="M691.4,206.8c0,1.1-0.4,2-1.2,2.5c-0.8,0.6-2,0.9-3.5,0.9s-2.7-0.2-3.6-0.7v-2c1.3,0.6,2.6,0.9,3.7,0.9
					c1.5,0,2.2-0.4,2.2-1.3c0-0.3-0.1-0.5-0.2-0.7c-0.2-0.2-0.4-0.4-0.8-0.6c-0.4-0.2-0.9-0.4-1.6-0.7c-1.3-0.5-2.2-1-2.6-1.5
					s-0.7-1.2-0.7-2c0-1,0.4-1.7,1.2-2.3c0.8-0.5,1.8-0.8,3.2-0.8c1.3,0,2.6,0.3,3.8,0.8l-0.8,1.8c-1.2-0.5-2.2-0.8-3.1-0.8
					c-1.3,0-1.9,0.4-1.9,1.1c0,0.4,0.2,0.7,0.5,0.9s1.1,0.6,2.2,1c0.9,0.4,1.6,0.7,2,1s0.7,0.6,0.9,1S691.4,206.2,691.4,206.8z"/>
				<path d="M698.2,208.3c0.6,0,1.2-0.1,1.8-0.3v1.8c-0.3,0.1-0.6,0.2-1,0.3s-0.9,0.1-1.3,0.1c-2.3,0-3.4-1.2-3.4-3.6v-6.1h-1.5v-1
					l1.7-0.9l0.8-2.4h1.5v2.5h3.2v1.8h-3.2v6.1c0,0.6,0.1,1,0.4,1.3C697.3,208.1,697.7,208.3,698.2,208.3z"/>
				<path d="M702.1,195.7c0-0.4,0.1-0.8,0.4-1c0.2-0.2,0.6-0.3,1-0.3s0.8,0.1,1,0.3s0.4,0.6,0.4,1s-0.1,0.7-0.4,1
					c-0.2,0.2-0.6,0.4-1,0.4s-0.8-0.1-1-0.4C702.2,196.4,702.1,196.1,702.1,195.7z M704.6,210h-2.4v-11.3h2.4V210z"/>
				<path d="M712.6,210.2c-1.7,0-3-0.5-3.9-1.5s-1.3-2.4-1.3-4.3c0-1.9,0.5-3.4,1.4-4.4s2.3-1.5,4-1.5c1.2,0,2.3,0.2,3.2,0.7
					l-0.7,1.9c-1-0.4-1.9-0.6-2.5-0.6c-2,0-2.9,1.3-2.9,3.9c0,1.3,0.2,2.2,0.7,2.9c0.5,0.6,1.2,1,2.1,1c1.1,0,2.1-0.3,3-0.8v2.1
					c-0.4,0.3-0.9,0.4-1.4,0.5C713.9,210.2,713.3,210.2,712.6,210.2z"/>
				<path d="M726,206.8c0,1.1-0.4,2-1.2,2.5c-0.8,0.6-2,0.9-3.5,0.9s-2.7-0.2-3.6-0.7v-2c1.3,0.6,2.6,0.9,3.7,0.9
					c1.5,0,2.2-0.4,2.2-1.3c0-0.3-0.1-0.5-0.2-0.7c-0.2-0.2-0.4-0.4-0.8-0.6c-0.4-0.2-0.9-0.4-1.6-0.7c-1.3-0.5-2.2-1-2.6-1.5
					c-0.5-0.5-0.7-1.2-0.7-2c0-1,0.4-1.7,1.2-2.3c0.8-0.5,1.8-0.8,3.2-0.8c1.3,0,2.6,0.3,3.8,0.8l-0.8,1.8c-1.2-0.5-2.2-0.8-3.1-0.8
					c-1.3,0-1.9,0.4-1.9,1.1c0,0.4,0.2,0.7,0.5,0.9s1.1,0.6,2.2,1c0.9,0.4,1.6,0.7,2,1s0.7,0.6,0.9,1
					C725.9,205.8,726,206.2,726,206.8z"/>
				<path d="M733.5,210.2c-1.8,0-3.1-0.5-4.1-1.5s-1.5-2.4-1.5-4.2s0.5-3.3,1.4-4.4c0.9-1.1,2.2-1.6,3.8-1.6c1.5,0,2.7,0.5,3.5,1.4
					c0.9,0.9,1.3,2.2,1.3,3.7v1.3h-7.5c0,1.1,0.3,1.9,0.9,2.5s1.3,0.9,2.4,0.9c0.7,0,1.3-0.1,1.9-0.2c0.6-0.1,1.2-0.3,1.9-0.6v2
					c-0.6,0.3-1.2,0.5-1.8,0.6S734.3,210.2,733.5,210.2z M733.1,200.3c-0.8,0-1.4,0.2-1.8,0.7c-0.5,0.5-0.7,1.2-0.8,2.1h5.1
					c0-0.9-0.2-1.6-0.7-2.1S733.9,200.3,733.1,200.3z"/>
				<path d="M747.7,210l-0.5-1.6h-0.1c-0.5,0.7-1.1,1.2-1.6,1.4c-0.6,0.2-1.3,0.4-2.1,0.4c-1.1,0-2-0.3-2.6-0.9s-0.9-1.4-0.9-2.5
					c0-1.2,0.4-2,1.3-2.6c0.9-0.6,2.2-0.9,4-1l2-0.1v-0.6c0-0.7-0.2-1.3-0.5-1.6s-0.9-0.5-1.6-0.5c-0.6,0-1.1,0.1-1.7,0.3
					c-0.5,0.2-1,0.4-1.5,0.6l-0.9-1.8c0.6-0.3,1.3-0.6,2-0.7c0.7-0.2,1.4-0.3,2.1-0.3c1.4,0,2.5,0.3,3.3,0.9s1.1,1.6,1.1,3v7.6
					H747.7z M744.1,208.4c0.9,0,1.6-0.2,2.1-0.7s0.8-1.2,0.8-2v-1l-1.5,0.1c-1.1,0-2,0.2-2.5,0.6c-0.5,0.3-0.8,0.9-0.8,1.5
					c0,0.5,0.1,0.9,0.4,1.2C743.1,208.2,743.6,208.4,744.1,208.4z"/>
				<path d="M758.5,198.5c0.5,0,0.9,0,1.2,0.1l-0.2,2.2c-0.3-0.1-0.7-0.1-1.1-0.1c-1,0-1.7,0.3-2.3,0.9c-0.6,0.6-0.9,1.4-0.9,2.4
					v5.9h-2.4v-11.3h1.9l0.3,2h0.1c0.4-0.7,0.9-1.2,1.5-1.6C757.2,198.7,757.8,198.5,758.5,198.5z"/>
				<path d="M766.4,210.2c-1.7,0-3-0.5-3.9-1.5s-1.3-2.4-1.3-4.3c0-1.9,0.5-3.4,1.4-4.4s2.3-1.5,4-1.5c1.2,0,2.3,0.2,3.2,0.7
					l-0.7,1.9c-1-0.4-1.9-0.6-2.5-0.6c-2,0-2.9,1.3-2.9,3.9c0,1.3,0.2,2.2,0.7,2.9c0.5,0.6,1.2,1,2.1,1c1.1,0,2.1-0.3,3-0.8v2.1
					c-0.4,0.3-0.9,0.4-1.4,0.5C767.7,210.2,767.1,210.2,766.4,210.2z"/>
				<path d="M782.1,210h-2.4v-6.9c0-0.9-0.2-1.5-0.5-2c-0.4-0.4-0.9-0.6-1.7-0.6c-1,0-1.7,0.3-2.2,0.9c-0.5,0.6-0.7,1.6-0.7,3v5.6
					h-2.4v-15.9h2.4v4c0,0.6,0,1.3-0.1,2.1h0.2c0.3-0.5,0.8-1,1.4-1.3c0.6-0.3,1.3-0.4,2-0.4c2.7,0,4.1,1.4,4.1,4.1L782.1,210
					L782.1,210z"/>
			</g>
		</g>
	</g>
	<g>
		<path class="st7" d="M612.2,205c0,1.5,0.2,3,0.6,4.4H634c2.4,0,4.4-2,4.4-4.4l0,0c0-2.4-2-4.4-4.4-4.4h-21.2
			C612.4,202,612.2,203.5,612.2,205z"/>
		<path class="st8" d="M641.6,195.9c0.6-0.6,1.2-1.2,1.7-1.8c-3.2-4-8.1-6.5-13.6-6.5c-6.9,0-12.8,4-15.6,9.8h23.8
			C639.2,197.4,640.6,196.8,641.6,195.9z"/>
		<path class="st9" d="M637.9,212.6H614c2.8,5.8,8.8,9.8,15.6,9.8c5.5,0,10.4-2.6,13.6-6.5c-0.5-0.6-1.1-1.3-1.7-1.8
			C640.6,213.2,639.2,212.6,637.9,212.6z"/>
	</g>
</g>
<g class="st10">
	<path class="st11" d="M55.4,94.9c-0.8,0-1.3,0.3-1.8,0.9c-0.4,0.6-0.6,1.4-0.6,2.4c0,2.1,0.8,3.2,2.4,3.2c0.7,0,1.5-0.2,2.4-0.5
		v1.7c-0.8,0.3-1.7,0.5-2.6,0.5c-1.4,0-2.4-0.4-3.2-1.3c-0.7-0.8-1.1-2-1.1-3.6c0-1,0.2-1.9,0.5-2.6c0.4-0.7,0.9-1.3,1.6-1.7
		s1.5-0.6,2.4-0.6s1.9,0.2,2.8,0.7l-0.7,1.6c-0.4-0.2-0.7-0.3-1.1-0.4C56.1,95,55.8,94.9,55.4,94.9z"/>
	<path class="st11" d="M61.7,102.9h-2V92.8h2V102.9z"/>
	<path class="st11" d="M70.4,99.3c0,1.2-0.3,2.1-0.9,2.8c-0.6,0.7-1.5,1-2.6,1c-0.7,0-1.3-0.2-1.8-0.5s-0.9-0.7-1.2-1.3
		s-0.4-1.2-0.4-2c0-1.2,0.3-2.1,0.9-2.8c0.6-0.7,1.5-1,2.6-1c0.7,0,1.3,0.2,1.8,0.5s0.9,0.7,1.2,1.3C70.3,97.8,70.4,98.5,70.4,99.3z
		 M65.4,99.3c0,0.7,0.1,1.3,0.4,1.6c0.2,0.4,0.6,0.6,1.2,0.6c0.5,0,0.9-0.2,1.1-0.6s0.3-0.9,0.3-1.6S68.3,98,68,97.7
		s-0.6-0.5-1.2-0.5c-0.5,0-0.9,0.2-1.1,0.5S65.4,98.5,65.4,99.3z"/>
	<path class="st11" d="M77.2,102.9l-0.3-0.9h-0.1c-0.2,0.3-0.5,0.6-0.9,0.8c-0.4,0.2-0.8,0.3-1.3,0.3c-0.9,0-1.5-0.2-1.9-0.7
		s-0.7-1.1-0.7-2v-4.7h2v4.3c0,0.5,0.1,0.9,0.3,1.2s0.5,0.4,0.9,0.4c0.6,0,1-0.2,1.2-0.6s0.4-1,0.4-1.8v-3.4h2v7.3h-1.6V102.9z"/>
	<path class="st11" d="M83.1,103c-0.9,0-1.5-0.3-2-1s-0.7-1.6-0.7-2.8c0-1.2,0.2-2.1,0.7-2.8s1.2-1,2.1-1s1.6,0.4,2.1,1.1h0.1
		c-0.1-0.5-0.1-1-0.1-1.5v-2.3h2v10.1h-1.5l-0.4-0.9h-0.1C84.7,102.7,84,103,83.1,103z M83.8,101.5c0.5,0,0.9-0.1,1.1-0.4
		s0.4-0.8,0.4-1.5v-0.3c0-0.8-0.1-1.3-0.4-1.7c-0.2-0.3-0.6-0.5-1.2-0.5c-0.4,0-0.8,0.2-1,0.6s-0.4,0.9-0.4,1.6s0.1,1.3,0.4,1.6
		C83,101.3,83.4,101.5,83.8,101.5z"/>
	<path class="st11" d="M95.2,102.9l-0.6-2.5l-0.8-3.2l0,0l-1.3,5.8h-2.1l-2.1-7.3h2l0.8,3.2c0.1,0.6,0.3,1.4,0.4,2.4l0,0
		c0-0.3,0.1-0.9,0.2-1.6l0.1-0.6l0.9-3.5H95l0.9,3.5c0,0.1,0,0.2,0.1,0.4c0,0.2,0.1,0.4,0.1,0.6s0.1,0.4,0.1,0.6s0,0.4,0,0.5l0,0
		c0-0.3,0.1-0.7,0.2-1.3c0.1-0.5,0.2-0.9,0.2-1.1l0.9-3.2h1.9l-2.1,7.3C97.3,102.9,95.2,102.9,95.2,102.9z"/>
	<path class="st11" d="M105.3,102.9l-0.4-1h-0.1c-0.3,0.4-0.7,0.7-1,0.9c-0.4,0.2-0.8,0.2-1.4,0.2c-0.7,0-1.2-0.2-1.7-0.6
		c-0.4-0.4-0.6-1-0.6-1.7c0-0.8,0.3-1.3,0.8-1.7c0.5-0.4,1.4-0.6,2.4-0.6h1.3v-0.3c0-0.7-0.4-1.1-1.1-1.1c-0.6,0-1.3,0.2-2.1,0.5
		l-0.7-1.3c0.8-0.4,1.8-0.7,2.8-0.7s1.7,0.2,2.2,0.6s0.8,1.1,0.8,1.9v4.9C106.5,102.9,105.3,102.9,105.3,102.9z M104.7,99.5h-0.8
		c-0.6,0-1,0.1-1.3,0.3c-0.3,0.2-0.4,0.5-0.4,0.9c0,0.6,0.3,0.8,1,0.8c0.5,0,0.8-0.1,1.1-0.4c0.3-0.3,0.4-0.6,0.4-1.1
		C104.7,100,104.7,99.5,104.7,99.5z"/>
	<path class="st11" d="M111.8,101.5c0.3,0,0.8-0.1,1.2-0.2v1.5c-0.5,0.2-1.1,0.3-1.8,0.3c-0.8,0-1.4-0.2-1.7-0.6
		c-0.4-0.4-0.5-1-0.5-1.8v-3.5h-1v-0.9l1.1-0.7l0.6-1.5h1.3v1.5h2v1.5h-2v3.5c0,0.3,0.1,0.5,0.2,0.6
		C111.3,101.4,111.5,101.5,111.8,101.5z"/>
	<path class="st11" d="M117.5,103c-2.3,0-3.4-1.2-3.4-3.7c0-1.2,0.3-2.2,0.9-2.8c0.6-0.7,1.5-1,2.7-1c0.8,0,1.6,0.2,2.3,0.5
		l-0.6,1.5c-0.3-0.1-0.6-0.2-0.9-0.3c-0.3-0.1-0.5-0.1-0.8-0.1c-1,0-1.5,0.7-1.5,2.2c0,1.4,0.5,2.1,1.5,2.1c0.4,0,0.7-0.1,1.1-0.2
		c0.3-0.1,0.7-0.3,1-0.5v1.7c-0.3,0.2-0.6,0.3-1,0.4S118,103,117.5,103z"/>
	<path class="st11" d="M128.1,102.9h-2v-4.3c0-1.1-0.4-1.6-1.2-1.6c-0.6,0-1,0.2-1.2,0.6s-0.4,1-0.4,1.8v3.4h-2V92.7h2v2.1
		c0,0.2,0,0.5,0,1.1v0.6h0.1c0.4-0.7,1.1-1.1,2.1-1.1c0.9,0,1.5,0.2,1.9,0.7s0.7,1.1,0.7,2V102.9z"/>
	<path class="st11" d="M133.7,102.9v-9.5h2v7.9h3.9v1.7L133.7,102.9L133.7,102.9z"/>
	<path class="st11" d="M147.7,99.3c0,1.2-0.3,2.1-0.9,2.8c-0.6,0.7-1.5,1-2.6,1c-0.7,0-1.3-0.2-1.8-0.5s-0.9-0.7-1.2-1.3
		s-0.4-1.2-0.4-2c0-1.2,0.3-2.1,0.9-2.8c0.6-0.7,1.5-1,2.6-1c0.7,0,1.3,0.2,1.8,0.5s0.9,0.7,1.2,1.3
		C147.6,97.8,147.7,98.5,147.7,99.3z M142.7,99.3c0,0.7,0.1,1.3,0.4,1.6c0.2,0.4,0.6,0.6,1.2,0.6c0.5,0,0.9-0.2,1.1-0.6
		c0.2-0.4,0.3-0.9,0.3-1.6s-0.1-1.3-0.4-1.6s-0.6-0.5-1.2-0.5c-0.5,0-0.9,0.2-1.1,0.5S142.7,98.5,142.7,99.3z"/>
	<path class="st11" d="M155.7,95.6v1l-1.1,0.3c0.2,0.3,0.3,0.7,0.3,1.1c0,0.8-0.3,1.4-0.8,1.8s-1.3,0.7-2.3,0.7h-0.4h-0.3
		c-0.2,0.2-0.3,0.3-0.3,0.5c0,0.3,0.4,0.4,1.1,0.4h1.2c0.8,0,1.4,0.2,1.8,0.5c0.4,0.3,0.6,0.8,0.6,1.5c0,0.9-0.4,1.5-1.1,2
		c-0.7,0.5-1.7,0.7-3.1,0.7c-1,0-1.8-0.2-2.3-0.5s-0.8-0.8-0.8-1.5c0-0.4,0.1-0.8,0.4-1.1c0.3-0.3,0.7-0.5,1.2-0.6
		c-0.2-0.1-0.4-0.2-0.5-0.4c-0.2-0.2-0.2-0.4-0.2-0.6c0-0.3,0.1-0.5,0.2-0.7s0.4-0.4,0.7-0.5c-0.4-0.2-0.7-0.4-0.9-0.8
		s-0.3-0.8-0.3-1.3c0-0.8,0.3-1.4,0.8-1.8s1.3-0.7,2.2-0.7c0.2,0,0.4,0,0.7,0.1c0.3,0,0.5,0.1,0.5,0.1h2.7V95.6z M150.1,103.9
		c0,0.3,0.1,0.5,0.4,0.6s0.6,0.2,1.1,0.2c0.7,0,1.3-0.1,1.7-0.3s0.6-0.5,0.6-0.8s-0.1-0.5-0.4-0.6c-0.2-0.1-0.6-0.2-1.1-0.2h-1
		c-0.4,0-0.7,0.1-0.9,0.3C150.2,103.4,150.1,103.7,150.1,103.9z M150.8,98c0,0.4,0.1,0.7,0.3,0.9c0.2,0.2,0.5,0.3,0.8,0.3
		c0.4,0,0.6-0.1,0.8-0.3c0.2-0.2,0.3-0.5,0.3-0.9c0-0.9-0.4-1.3-1.1-1.3C151.2,96.7,150.8,97.1,150.8,98z"/>
	<path class="st11" d="M162,100.7c0,0.7-0.3,1.3-0.8,1.7c-0.5,0.4-1.3,0.6-2.3,0.6c-0.5,0-1,0-1.4-0.1s-0.7-0.2-1-0.3V101
		c0.4,0.2,0.8,0.3,1.2,0.4s0.9,0.2,1.2,0.2c0.7,0,1.1-0.2,1.1-0.6c0-0.2,0-0.3-0.1-0.4s-0.3-0.2-0.5-0.3c-0.2-0.1-0.5-0.3-0.9-0.4
		c-0.6-0.2-1-0.5-1.2-0.7c-0.3-0.2-0.5-0.4-0.6-0.7c-0.1-0.3-0.2-0.6-0.2-1c0-0.6,0.3-1.1,0.8-1.5s1.2-0.5,2.1-0.5
		c0.9,0,1.7,0.2,2.6,0.6l-0.6,1.4c-0.4-0.2-0.7-0.3-1-0.4s-0.6-0.2-1-0.2c-0.6,0-0.9,0.2-0.9,0.5c0,0.2,0.1,0.3,0.3,0.5
		c0.2,0.1,0.6,0.3,1.2,0.6c0.6,0.2,1,0.4,1.2,0.6c0.3,0.2,0.5,0.4,0.6,0.7C161.9,100.1,162,100.4,162,100.7z"/>
</g>
<g class="st10">
	<path class="st11" d="M100.9,270c0,0.9-0.3,1.5-0.9,2s-1.5,0.7-2.6,0.7c-1,0-1.9-0.2-2.7-0.6v-1.8c0.6,0.3,1.2,0.5,1.6,0.6
		s0.9,0.2,1.2,0.2c0.4,0,0.8-0.1,1-0.3s0.4-0.4,0.4-0.8c0-0.2-0.1-0.4-0.2-0.5c-0.1-0.1-0.3-0.3-0.5-0.4c-0.2-0.1-0.6-0.3-1.2-0.6
		c-0.6-0.3-1-0.5-1.3-0.8s-0.5-0.5-0.7-0.9c-0.2-0.3-0.3-0.7-0.3-1.2c0-0.8,0.3-1.5,0.9-2s1.4-0.7,2.4-0.7c0.5,0,1,0.1,1.4,0.2
		c0.4,0.1,0.9,0.3,1.4,0.5l-0.7,1.6c-0.5-0.2-0.9-0.4-1.3-0.4c-0.3-0.1-0.7-0.1-1-0.1c-0.4,0-0.7,0.1-0.9,0.3
		c-0.2,0.2-0.3,0.4-0.3,0.7c0,0.2,0,0.3,0.1,0.5c0.1,0.1,0.2,0.3,0.4,0.4c0.2,0.1,0.6,0.3,1.3,0.7c0.9,0.4,1.5,0.9,1.8,1.3
		C100.7,268.8,100.9,269.3,100.9,270z"/>
	<path class="st11" d="M111.2,267.8c0,1.1-0.2,2.1-0.6,2.8c-0.4,0.8-1,1.3-1.7,1.7l2.3,2.6h-2.6l-1.7-2.1h-0.1
		c-1.5,0-2.6-0.4-3.4-1.3c-0.8-0.9-1.2-2.1-1.2-3.6c0-1.6,0.4-2.8,1.2-3.6c0.8-0.8,1.9-1.3,3.4-1.3s2.6,0.4,3.4,1.3
		C111,265.2,111.2,266.3,111.2,267.8z M104.3,267.8c0,1.1,0.2,1.9,0.6,2.4s1,0.8,1.8,0.8c1.6,0,2.4-1.1,2.4-3.2
		c0-2.1-0.8-3.2-2.4-3.2c-0.8,0-1.4,0.3-1.8,0.8C104.5,266,104.3,266.8,104.3,267.8z"/>
	<path class="st11" d="M118.8,270c0,0.9-0.3,1.5-0.9,2s-1.5,0.7-2.6,0.7c-1,0-1.9-0.2-2.7-0.6v-1.8c0.6,0.3,1.2,0.5,1.6,0.6
		s0.9,0.2,1.2,0.2c0.4,0,0.8-0.1,1-0.3s0.4-0.4,0.4-0.8c0-0.2-0.1-0.4-0.2-0.5c-0.1-0.1-0.3-0.3-0.5-0.4c-0.2-0.1-0.6-0.3-1.2-0.6
		c-0.6-0.3-1-0.5-1.3-0.8s-0.5-0.5-0.7-0.9c-0.2-0.3-0.3-0.7-0.3-1.2c0-0.8,0.3-1.5,0.9-2s1.4-0.7,2.4-0.7c0.5,0,1,0.1,1.4,0.2
		c0.4,0.1,0.9,0.3,1.4,0.5l-0.7,1.6c-0.5-0.2-0.9-0.4-1.3-0.4c-0.3-0.1-0.7-0.1-1-0.1c-0.4,0-0.7,0.1-0.9,0.3
		c-0.2,0.2-0.3,0.4-0.3,0.7c0,0.2,0,0.3,0.1,0.5c0.1,0.1,0.2,0.3,0.4,0.4c0.2,0.1,0.6,0.3,1.3,0.7c0.9,0.4,1.5,0.9,1.8,1.3
		C118.7,268.8,118.8,269.3,118.8,270z"/>
</g>
<g class="st10">
	<path class="st11" d="M68.1,348.4c0,1.6-0.4,2.8-1.2,3.6c-0.8,0.8-1.9,1.3-3.4,1.3s-2.6-0.4-3.4-1.3s-1.2-2.1-1.2-3.6
		c0-1.6,0.4-2.8,1.2-3.6s1.9-1.3,3.4-1.3s2.6,0.4,3.4,1.3S68.1,346.8,68.1,348.4z M61.1,348.4c0,1.1,0.2,1.9,0.6,2.4s1,0.8,1.8,0.8
		c1.6,0,2.4-1.1,2.4-3.2s-0.8-3.2-2.4-3.2c-0.8,0-1.4,0.3-1.8,0.8C61.3,346.5,61.1,347.3,61.1,348.4z"/>
	<path class="st11" d="M72.9,351.7c0.3,0,0.8-0.1,1.2-0.2v1.5c-0.5,0.2-1.1,0.3-1.8,0.3c-0.8,0-1.4-0.2-1.7-0.6
		c-0.4-0.4-0.5-1-0.5-1.8v-3.5h-1v-0.8l1.1-0.7l0.6-1.5h1.3v1.5h2v1.5h-2v3.5c0,0.3,0.1,0.5,0.2,0.6
		C72.5,351.6,72.7,351.7,72.9,351.7z"/>
	<path class="st11" d="M82.4,353.2h-2v-4.3c0-1.1-0.4-1.6-1.2-1.6c-0.6,0-1,0.2-1.2,0.6s-0.4,1-0.4,1.8v3.4h-2V343h2v2.1
		c0,0.2,0,0.5,0,1.1v0.6h0.1c0.4-0.7,1.1-1.1,2.1-1.1c0.9,0,1.5,0.2,1.9,0.7s0.7,1.1,0.7,2V353.2z"/>
	<path class="st11" d="M87.7,353.3c-1.2,0-2.1-0.3-2.7-1c-0.7-0.6-1-1.6-1-2.7c0-1.2,0.3-2.2,0.9-2.8s1.5-1,2.5-1s1.8,0.3,2.4,0.9
		s0.9,1.4,0.9,2.4v1H86c0,0.6,0.2,1,0.5,1.3s0.8,0.5,1.3,0.5c0.4,0,0.9,0,1.2-0.1c0.4-0.1,0.8-0.2,1.2-0.4v1.5
		c-0.3,0.2-0.7,0.3-1.1,0.4C88.8,353.2,88.3,353.3,87.7,353.3z M87.4,347.2c-0.4,0-0.8,0.1-1,0.4s-0.4,0.6-0.4,1.1h2.8
		c0-0.5-0.1-0.9-0.4-1.1C88.2,347.3,87.9,347.2,87.4,347.2z"/>
	<path class="st11" d="M96.4,345.7c0.3,0,0.5,0,0.7,0.1l-0.1,1.9c-0.2,0-0.4-0.1-0.6-0.1c-0.6,0-1.1,0.2-1.5,0.5s-0.5,0.8-0.5,1.4
		v3.7h-2v-7.3h1.5l0.3,1.2h0.1c0.2-0.4,0.5-0.7,0.9-1S95.9,345.7,96.4,345.7z"/>
	<path class="st11" d="M107.6,350.5c0,0.9-0.3,1.5-0.9,2s-1.5,0.7-2.6,0.7c-1,0-1.9-0.2-2.7-0.6v-1.9c0.6,0.3,1.2,0.5,1.6,0.6
		s0.9,0.2,1.2,0.2c0.4,0,0.8-0.1,1-0.3c0.2-0.2,0.4-0.4,0.4-0.8c0-0.2-0.1-0.4-0.2-0.5s-0.3-0.3-0.5-0.4s-0.6-0.3-1.2-0.6
		c-0.6-0.3-1-0.5-1.3-0.8s-0.5-0.5-0.7-0.9c-0.2-0.3-0.3-0.7-0.3-1.2c0-0.8,0.3-1.5,0.9-2s1.4-0.7,2.4-0.7c0.5,0,1,0.1,1.4,0.2
		s0.9,0.3,1.4,0.5l-0.7,1.6c-0.5-0.2-0.9-0.4-1.3-0.4c-0.3-0.1-0.7-0.1-1-0.1c-0.4,0-0.7,0.1-0.9,0.3c-0.2,0.2-0.3,0.4-0.3,0.7
		c0,0.2,0,0.3,0.1,0.5c0.1,0.1,0.2,0.3,0.4,0.4s0.6,0.3,1.3,0.7c0.9,0.4,1.5,0.9,1.8,1.3C107.4,349.4,107.6,349.9,107.6,350.5z"/>
	<path class="st11" d="M112.5,353.3c-1.2,0-2.1-0.3-2.7-1c-0.7-0.6-1-1.6-1-2.7c0-1.2,0.3-2.2,0.9-2.8s1.5-1,2.5-1s1.8,0.3,2.4,0.9
		s0.9,1.4,0.9,2.4v1h-4.7c0,0.6,0.2,1,0.5,1.3s0.8,0.5,1.3,0.5c0.4,0,0.9,0,1.2-0.1c0.4-0.1,0.8-0.2,1.2-0.4v1.5
		c-0.3,0.2-0.7,0.3-1.1,0.4C113.5,353.2,113,353.3,112.5,353.3z M112.2,347.2c-0.4,0-0.8,0.1-1,0.4s-0.4,0.6-0.4,1.1h2.8
		c0-0.5-0.1-0.9-0.4-1.1C112.9,347.3,112.6,347.2,112.2,347.2z"/>
	<path class="st11" d="M121.1,345.7c0.3,0,0.5,0,0.7,0.1l-0.1,1.9c-0.2,0-0.4-0.1-0.6-0.1c-0.6,0-1.1,0.2-1.5,0.5s-0.5,0.8-0.5,1.4
		v3.7h-2v-7.3h1.5l0.3,1.2h0.1c0.2-0.4,0.5-0.7,0.9-1S120.7,345.7,121.1,345.7z"/>
	<path class="st11" d="M124.8,353.2l-2.8-7.3h2.1l1.4,4.1c0.2,0.5,0.3,1,0.3,1.5l0,0c0-0.4,0.1-0.9,0.3-1.5l1.4-4.1h2.1l-2.8,7.3
		H124.8z"/>
	<path class="st11" d="M130.6,344c0-0.6,0.4-1,1.1-1s1.1,0.3,1.1,1c0,0.3-0.1,0.5-0.3,0.7s-0.5,0.3-0.8,0.3
		C131,345,130.6,344.6,130.6,344z M132.7,353.2h-2v-7.3h2V353.2z"/>
	<path class="st11" d="M137.7,353.3c-2.3,0-3.4-1.2-3.4-3.7c0-1.2,0.3-2.2,0.9-2.8c0.6-0.7,1.5-1,2.7-1c0.8,0,1.6,0.2,2.3,0.5
		l-0.6,1.5c-0.3-0.1-0.6-0.2-0.9-0.3c-0.3-0.1-0.5-0.1-0.8-0.1c-1,0-1.5,0.7-1.5,2.2c0,1.4,0.5,2.1,1.5,2.1c0.4,0,0.7-0.1,1.1-0.2
		c0.3-0.1,0.7-0.3,1-0.5v1.7c-0.3,0.2-0.6,0.3-1,0.4S138.2,353.3,137.7,353.3z"/>
	<path class="st11" d="M144.9,353.3c-1.2,0-2.1-0.3-2.7-1c-0.7-0.6-1-1.6-1-2.7c0-1.2,0.3-2.2,0.9-2.8s1.5-1,2.5-1s1.8,0.3,2.4,0.9
		c0.6,0.6,0.9,1.4,0.9,2.4v1h-4.7c0,0.6,0.2,1,0.5,1.3s0.8,0.5,1.3,0.5c0.4,0,0.9,0,1.2-0.1c0.4-0.1,0.8-0.2,1.2-0.4v1.5
		c-0.3,0.2-0.7,0.3-1.1,0.4C146,353.2,145.5,353.3,144.9,353.3z M144.6,347.2c-0.4,0-0.8,0.1-1,0.4s-0.4,0.6-0.4,1.1h2.8
		c0-0.5-0.1-0.9-0.4-1.1C145.4,347.3,145,347.2,144.6,347.2z"/>
	<path class="st11" d="M154.6,351c0,0.7-0.3,1.3-0.8,1.7c-0.5,0.4-1.3,0.6-2.3,0.6c-0.5,0-1,0-1.4-0.1s-0.7-0.2-1-0.3v-1.6
		c0.4,0.2,0.8,0.3,1.2,0.4s0.9,0.2,1.2,0.2c0.7,0,1.1-0.2,1.1-0.6c0-0.2,0-0.3-0.1-0.4s-0.3-0.2-0.5-0.3c-0.2-0.1-0.5-0.3-0.9-0.4
		c-0.6-0.2-1-0.5-1.2-0.7c-0.3-0.2-0.5-0.4-0.6-0.7c-0.1-0.3-0.2-0.6-0.2-1c0-0.6,0.3-1.1,0.8-1.5s1.2-0.5,2.1-0.5
		c0.9,0,1.7,0.2,2.6,0.6l-0.6,1.4c-0.4-0.2-0.7-0.3-1-0.4s-0.6-0.2-1-0.2c-0.6,0-0.9,0.2-0.9,0.5c0,0.2,0.1,0.3,0.3,0.5
		c0.2,0.1,0.6,0.3,1.2,0.6c0.6,0.2,1,0.4,1.2,0.6c0.3,0.2,0.5,0.4,0.6,0.7C154.5,350.3,154.6,350.6,154.6,351z"/>
</g>
<g class="st10">
	<path class="st12" d="M85,362.1c0-0.9,0.1-1.8,0.4-2.7c0.3-0.8,0.7-1.6,1.2-2.2h1.3c-0.5,0.7-0.9,1.5-1.1,2.3s-0.4,1.7-0.4,2.6
		s0.1,1.7,0.4,2.5s0.6,1.6,1.1,2.2h-1.3c-0.5-0.6-0.9-1.3-1.2-2.1C85.1,364,85,363.1,85,362.1z"/>
	<path class="st12" d="M90.9,365.2h-1.6v-7.9h4.5v1.4h-2.9v2h2.7v1.4h-2.7V365.2z"/>
	<path class="st12" d="M99.4,365.2l-0.2-0.8h-0.1c-0.2,0.3-0.4,0.5-0.7,0.6s-0.7,0.2-1.1,0.2c-0.7,0-1.2-0.2-1.6-0.6
		s-0.5-0.9-0.5-1.6v-3.9h1.6v3.5c0,0.4,0.1,0.8,0.2,1s0.4,0.3,0.7,0.3c0.5,0,0.8-0.2,1-0.5s0.3-0.8,0.3-1.5v-2.8h1.6v6L99.4,365.2
		L99.4,365.2z"/>
	<path class="st12" d="M104.9,364c0.3,0,0.6-0.1,1-0.2v1.2c-0.4,0.2-0.9,0.3-1.5,0.3c-0.7,0-1.1-0.2-1.4-0.5s-0.4-0.8-0.4-1.5v-2.9
		h-0.8v-0.7l0.9-0.5l0.5-1.3h1v1.3h1.7v1.2h-1.7v2.9c0,0.2,0.1,0.4,0.2,0.5C104.5,363.9,104.7,364,104.9,364z"/>
	<path class="st12" d="M111.4,365.2l-0.2-0.8h-0.1c-0.2,0.3-0.4,0.5-0.7,0.6s-0.7,0.2-1.1,0.2c-0.7,0-1.2-0.2-1.6-0.6
		s-0.5-0.9-0.5-1.6v-3.9h1.6v3.5c0,0.4,0.1,0.8,0.2,1s0.4,0.3,0.7,0.3c0.5,0,0.8-0.2,1-0.5s0.3-0.8,0.3-1.5v-2.8h1.6v6L111.4,365.2
		L111.4,365.2z"/>
	<path class="st12" d="M117.7,359c0.2,0,0.4,0,0.6,0l-0.1,1.5c-0.1,0-0.3-0.1-0.5-0.1c-0.5,0-0.9,0.1-1.2,0.4
		c-0.3,0.3-0.4,0.6-0.4,1.1v3.1h-1.6v-6h1.2l0.2,1h0.1c0.2-0.3,0.4-0.6,0.8-0.8C117,359.1,117.3,359,117.7,359z"/>
	<path class="st12" d="M122.1,365.3c-1,0-1.7-0.3-2.3-0.8c-0.5-0.5-0.8-1.3-0.8-2.3s0.3-1.8,0.8-2.3s1.2-0.8,2.1-0.8
		c0.8,0,1.5,0.2,2,0.7s0.7,1.2,0.7,2v0.8h-3.9c0,0.5,0.2,0.8,0.4,1.1s0.6,0.4,1.1,0.4c0.4,0,0.7,0,1-0.1s0.7-0.2,1-0.4v1.3
		c-0.3,0.1-0.6,0.2-0.9,0.3C122.9,365.2,122.6,365.3,122.1,365.3z M121.9,360.2c-0.3,0-0.6,0.1-0.8,0.3c-0.2,0.2-0.3,0.5-0.3,0.9
		h2.3c0-0.4-0.1-0.7-0.3-0.9C122.5,360.3,122.2,360.2,121.9,360.2z"/>
	<path class="st12" d="M128.3,362.1c0,0.9-0.1,1.8-0.4,2.6c-0.3,0.8-0.7,1.5-1.2,2.1h-1.3c0.5-0.7,0.9-1.4,1.1-2.2s0.4-1.7,0.4-2.5
		c0-0.9-0.1-1.7-0.4-2.6s-0.6-1.6-1.1-2.3h1.3c0.5,0.6,0.9,1.4,1.2,2.2S128.3,361.2,128.3,362.1z"/>
</g>
<g class="st10">
	<path class="st11" d="M343.6,276.2h-2v-9.5h5.5v1.7h-3.5v2.5h3.2v1.6h-3.2V276.2z"/>
	<path class="st11" d="M353.9,276.2l-0.3-0.9h-0.1c-0.2,0.3-0.5,0.6-0.9,0.8c-0.4,0.2-0.8,0.3-1.3,0.3c-0.9,0-1.5-0.2-1.9-0.7
		s-0.7-1.1-0.7-2V269h2v4.3c0,0.5,0.1,0.9,0.3,1.2s0.5,0.4,0.9,0.4c0.6,0,1-0.2,1.2-0.6c0.2-0.4,0.4-1,0.4-1.8v-3.4h2v7.3h-1.6
		V276.2z"/>
	<path class="st11" d="M364.3,276.2h-2v-4.3c0-0.5-0.1-0.9-0.3-1.2s-0.5-0.4-0.9-0.4c-0.6,0-1,0.2-1.2,0.6s-0.4,1-0.4,1.8v3.4h-2
		v-7.3h1.5l0.3,0.9h0.1c0.2-0.4,0.5-0.6,0.9-0.8c0.4-0.2,0.8-0.3,1.3-0.3c0.8,0,1.5,0.2,1.9,0.7s0.7,1.1,0.7,2v4.9H364.3z"/>
	<path class="st11" d="M369.3,276.4c-2.3,0-3.4-1.2-3.4-3.7c0-1.2,0.3-2.2,0.9-2.8c0.6-0.7,1.5-1,2.7-1c0.8,0,1.6,0.2,2.3,0.5
		l-0.6,1.5c-0.3-0.1-0.6-0.2-0.9-0.3c-0.3-0.1-0.5-0.1-0.8-0.1c-1,0-1.5,0.7-1.5,2.2c0,1.4,0.5,2.1,1.5,2.1c0.4,0,0.7-0.1,1.1-0.2
		c0.3-0.1,0.7-0.3,1-0.5v1.7c-0.3,0.2-0.6,0.3-1,0.4S369.8,276.4,369.3,276.4z"/>
	<path class="st11" d="M376.2,274.8c0.3,0,0.8-0.1,1.2-0.2v1.5c-0.5,0.2-1.1,0.3-1.8,0.3c-0.8,0-1.4-0.2-1.7-0.6
		c-0.4-0.4-0.5-1-0.5-1.8v-3.5h-1v-0.8l1.1-0.7l0.6-1.5h1.3v1.5h2v1.5h-2v3.5c0,0.3,0.1,0.5,0.2,0.6
		C375.8,274.7,376,274.8,376.2,274.8z"/>
	<path class="st11" d="M378.9,267.1c0-0.6,0.4-1,1.1-1s1.1,0.3,1.1,1c0,0.3-0.1,0.5-0.3,0.7c-0.2,0.2-0.5,0.3-0.8,0.3
		C379.2,268.1,378.9,267.7,378.9,267.1z M380.9,276.2h-2v-7.3h2V276.2z"/>
	<path class="st11" d="M389.6,272.6c0,1.2-0.3,2.1-0.9,2.8s-1.5,1-2.6,1c-0.7,0-1.3-0.2-1.8-0.5s-0.9-0.7-1.2-1.3
		c-0.3-0.6-0.4-1.2-0.4-2c0-1.2,0.3-2.1,0.9-2.8s1.5-1,2.6-1c0.7,0,1.3,0.2,1.8,0.5s0.9,0.7,1.2,1.3
		C389.5,271.2,389.6,271.8,389.6,272.6z M384.6,272.6c0,0.7,0.1,1.3,0.4,1.6c0.2,0.4,0.6,0.6,1.2,0.6c0.5,0,0.9-0.2,1.1-0.6
		c0.2-0.4,0.3-0.9,0.3-1.6c0-0.7-0.1-1.3-0.4-1.6c-0.3-0.3-0.6-0.5-1.2-0.5c-0.5,0-0.9,0.2-1.1,0.5
		C384.7,271.3,384.6,271.9,384.6,272.6z"/>
	<path class="st11" d="M398,276.2h-2v-4.3c0-0.5-0.1-0.9-0.3-1.2s-0.5-0.4-0.9-0.4c-0.6,0-1,0.2-1.2,0.6s-0.4,1-0.4,1.8v3.4h-2v-7.3
		h1.5l0.3,0.9h0.1c0.2-0.4,0.5-0.6,0.9-0.8c0.4-0.2,0.8-0.3,1.3-0.3c0.8,0,1.5,0.2,1.9,0.7s0.7,1.1,0.7,2v4.9H398z"/>
	<path class="st11" d="M404.1,268.8c0.9,0,1.5,0.3,2,1s0.7,1.6,0.7,2.8c0,1.2-0.3,2.1-0.8,2.8s-1.2,1-2,1c-0.9,0-1.5-0.3-2-0.9h-0.1
		l-0.3,0.8H400v-10.1h2v2.4c0,0.3,0,0.8-0.1,1.4h0.1C402.5,269.2,403.2,268.8,404.1,268.8z M403.5,270.4c-0.5,0-0.8,0.2-1.1,0.5
		s-0.3,0.8-0.4,1.5v0.2c0,0.8,0.1,1.3,0.3,1.7c0.2,0.3,0.6,0.5,1.1,0.5c0.4,0,0.7-0.2,1-0.6c0.2-0.4,0.4-0.9,0.4-1.6
		s-0.1-1.3-0.4-1.6C404.2,270.6,403.9,270.4,403.5,270.4z"/>
	<path class="st11" d="M411.8,276.4c-1.2,0-2.1-0.3-2.7-1s-1-1.6-1-2.7c0-1.2,0.3-2.2,0.9-2.8c0.6-0.7,1.5-1,2.5-1s1.8,0.3,2.4,0.9
		s0.9,1.4,0.9,2.4v1h-4.7c0,0.6,0.2,1,0.5,1.3c0.3,0.3,0.8,0.5,1.3,0.5c0.4,0,0.9,0,1.2-0.1c0.4-0.1,0.8-0.2,1.2-0.4v1.5
		c-0.3,0.2-0.7,0.3-1.1,0.4C412.8,276.3,412.3,276.4,411.8,276.4z M411.5,270.2c-0.4,0-0.8,0.1-1,0.4s-0.4,0.6-0.4,1.1h2.8
		c0-0.5-0.1-0.9-0.4-1.1C412.3,270.4,411.9,270.2,411.5,270.2z"/>
	<path class="st11" d="M421,276.2l-0.4-1h-0.1c-0.3,0.4-0.7,0.7-1,0.9c-0.4,0.2-0.8,0.2-1.4,0.2c-0.7,0-1.2-0.2-1.7-0.6
		c-0.4-0.4-0.6-1-0.6-1.7c0-0.8,0.3-1.3,0.8-1.7c0.5-0.4,1.4-0.6,2.4-0.6h1.3v-0.3c0-0.7-0.4-1.1-1.1-1.1c-0.6,0-1.3,0.2-2.1,0.5
		l-0.7-1.3c0.8-0.4,1.8-0.7,2.8-0.7s1.7,0.2,2.2,0.6c0.5,0.4,0.8,1.1,0.8,1.9v4.9L421,276.2L421,276.2z M420.4,272.9h-0.8
		c-0.6,0-1,0.1-1.3,0.3c-0.3,0.2-0.4,0.5-0.4,0.9c0,0.6,0.3,0.8,1,0.8c0.5,0,0.8-0.1,1.1-0.4c0.3-0.3,0.4-0.6,0.4-1.1L420.4,272.9
		L420.4,272.9z"/>
	<path class="st11" d="M427.5,274.8c0.3,0,0.8-0.1,1.2-0.2v1.5c-0.5,0.2-1.1,0.3-1.8,0.3c-0.8,0-1.4-0.2-1.7-0.6
		c-0.4-0.4-0.5-1-0.5-1.8v-3.5h-1v-0.8l1.1-0.7l0.6-1.5h1.3v1.5h2v1.5h-2v3.5c0,0.3,0.1,0.5,0.2,0.6
		C427,274.7,427.2,274.8,427.5,274.8z"/>
</g>
<g class="st10">
	<path class="st12" d="M337.1,286.1c0,0.7-0.3,1.3-0.8,1.7s-1.2,0.6-2.1,0.6c-0.8,0-1.6-0.2-2.2-0.5v-1.6c0.5,0.2,1,0.4,1.3,0.5
		c0.4,0.1,0.7,0.1,1,0.1c0.4,0,0.6-0.1,0.8-0.2c0.2-0.1,0.3-0.3,0.3-0.6c0-0.2,0-0.3-0.1-0.4c-0.1-0.1-0.2-0.2-0.4-0.3
		c-0.2-0.1-0.5-0.3-1-0.5s-0.8-0.4-1.1-0.7c-0.3-0.3-0.4-0.4-0.6-0.7c-0.1-0.3-0.2-0.6-0.2-1c0-0.7,0.2-1.2,0.7-1.6s1.1-0.6,2-0.6
		c0.4,0,0.8,0,1.2,0.1c0.4,0.1,0.8,0.2,1.2,0.4l-0.5,1.3c-0.4-0.2-0.8-0.3-1-0.4c-0.3-0.1-0.5-0.1-0.8-0.1s-0.6,0.1-0.7,0.2
		s-0.3,0.3-0.3,0.6c0,0.1,0,0.3,0.1,0.4s0.2,0.2,0.3,0.3c0.1,0.1,0.5,0.3,1.1,0.6c0.7,0.4,1.2,0.7,1.5,1.1
		C337.1,285.2,337.1,285.5,337.1,286.1z"/>
	<path class="st12" d="M341.2,288.3c-1,0-1.7-0.3-2.3-0.8c-0.5-0.5-0.8-1.3-0.8-2.3s0.3-1.8,0.8-2.3s1.2-0.8,2.1-0.8
		c0.8,0,1.5,0.2,2,0.7s0.7,1.2,0.7,2v0.8h-3.9c0,0.5,0.2,0.8,0.4,1.1s0.6,0.4,1.1,0.4c0.4,0,0.7,0,1-0.1s0.7-0.2,1-0.4v1.3
		c-0.3,0.1-0.6,0.2-0.9,0.3C342,288.3,341.6,288.3,341.2,288.3z M340.9,283.3c-0.3,0-0.6,0.1-0.8,0.3c-0.2,0.2-0.3,0.5-0.3,0.9h2.3
		c0-0.4-0.1-0.7-0.3-0.9C341.5,283.4,341.3,283.3,340.9,283.3z"/>
	<path class="st12" d="M348.3,282.1c0.2,0,0.4,0,0.6,0l-0.1,1.5c-0.1,0-0.3-0.1-0.5-0.1c-0.5,0-0.9,0.1-1.2,0.4
		c-0.3,0.3-0.4,0.6-0.4,1.1v3.1h-1.6v-6h1.2l0.2,1h0.1c0.2-0.3,0.4-0.6,0.8-0.8C347.6,282.2,347.9,282.1,348.3,282.1z"/>
	<path class="st12" d="M351.4,288.2l-2.3-6h1.7l1.2,3.4c0.1,0.4,0.2,0.8,0.2,1.2l0,0c0-0.3,0.1-0.8,0.2-1.2l1.2-3.4h1.7l-2.3,6
		H351.4z"/>
	<path class="st12" d="M358.9,288.3c-1,0-1.7-0.3-2.3-0.8c-0.5-0.5-0.8-1.3-0.8-2.3s0.3-1.8,0.8-2.3s1.2-0.8,2.1-0.8
		c0.8,0,1.5,0.2,2,0.7s0.7,1.2,0.7,2v0.8h-3.9c0,0.5,0.2,0.8,0.4,1.1s0.6,0.4,1.1,0.4c0.4,0,0.7,0,1-0.1s0.7-0.2,1-0.4v1.3
		c-0.3,0.1-0.6,0.2-0.9,0.3C359.8,288.3,359.4,288.3,358.9,288.3z M358.7,283.3c-0.3,0-0.6,0.1-0.8,0.3c-0.2,0.2-0.3,0.5-0.3,0.9
		h2.3c0-0.4-0.1-0.7-0.3-0.9C359.3,283.4,359,283.3,358.7,283.3z"/>
	<path class="st12" d="M366,282.1c0.2,0,0.4,0,0.6,0l-0.1,1.5c-0.1,0-0.3-0.1-0.5-0.1c-0.5,0-0.9,0.1-1.2,0.4
		c-0.3,0.3-0.4,0.6-0.4,1.1v3.1h-1.6v-6h1.2l0.2,1h0.1c0.2-0.3,0.4-0.6,0.8-0.8C365.3,282.2,365.7,282.1,366,282.1z"/>
	<path class="st12" d="M369.3,288.2h-1.6v-8.4h1.6V288.2z"/>
	<path class="st12" d="M373.8,288.3c-1,0-1.7-0.3-2.3-0.8c-0.5-0.5-0.8-1.3-0.8-2.3s0.3-1.8,0.8-2.3s1.2-0.8,2.1-0.8
		c0.8,0,1.5,0.2,2,0.7s0.7,1.2,0.7,2v0.8h-3.9c0,0.5,0.2,0.8,0.4,1.1s0.6,0.4,1.1,0.4c0.4,0,0.7,0,1-0.1s0.7-0.2,1-0.4v1.3
		c-0.3,0.1-0.6,0.2-0.9,0.3C374.6,288.3,374.2,288.3,373.8,288.3z M373.5,283.3c-0.3,0-0.6,0.1-0.8,0.3c-0.2,0.2-0.3,0.5-0.3,0.9
		h2.3c0-0.4-0.1-0.7-0.3-0.9C374.2,283.4,373.9,283.3,373.5,283.3z"/>
	<path class="st12" d="M381.7,286.5c0,0.6-0.2,1.1-0.6,1.4c-0.4,0.3-1.1,0.5-1.9,0.5c-0.4,0-0.8,0-1.1-0.1c-0.3-0.1-0.6-0.1-0.9-0.3
		v-1.4c0.3,0.1,0.6,0.3,1,0.4s0.7,0.1,1,0.1c0.6,0,0.9-0.2,0.9-0.5c0-0.1,0-0.2-0.1-0.3c-0.1-0.1-0.2-0.2-0.4-0.3
		c-0.2-0.1-0.5-0.2-0.8-0.4c-0.5-0.2-0.8-0.4-1-0.5c-0.2-0.2-0.4-0.4-0.5-0.6c-0.1-0.2-0.1-0.5-0.1-0.8c0-0.5,0.2-0.9,0.6-1.2
		s1-0.4,1.8-0.4c0.7,0,1.4,0.2,2.1,0.5l-0.5,1.2c-0.3-0.1-0.6-0.2-0.8-0.3s-0.5-0.1-0.8-0.1c-0.5,0-0.7,0.1-0.7,0.4
		c0,0.1,0.1,0.3,0.2,0.4c0.2,0.1,0.5,0.3,1,0.5s0.8,0.4,1,0.5c0.2,0.2,0.4,0.4,0.5,0.6S381.7,286.2,381.7,286.5z"/>
	<path class="st12" d="M387.2,286.5c0,0.6-0.2,1.1-0.6,1.4c-0.4,0.3-1.1,0.5-1.9,0.5c-0.4,0-0.8,0-1.1-0.1c-0.3-0.1-0.6-0.1-0.9-0.3
		v-1.4c0.3,0.1,0.6,0.3,1,0.4s0.7,0.1,1,0.1c0.6,0,0.9-0.2,0.9-0.5c0-0.1,0-0.2-0.1-0.3c-0.1-0.1-0.2-0.2-0.4-0.3
		c-0.2-0.1-0.5-0.2-0.8-0.4c-0.5-0.2-0.8-0.4-1-0.5c-0.2-0.2-0.4-0.4-0.5-0.6c-0.1-0.2-0.1-0.5-0.1-0.8c0-0.5,0.2-0.9,0.6-1.2
		s1-0.4,1.8-0.4c0.7,0,1.4,0.2,2.1,0.5l-0.5,1.2c-0.3-0.1-0.6-0.2-0.8-0.3s-0.5-0.1-0.8-0.1c-0.5,0-0.7,0.1-0.7,0.4
		c0,0.1,0.1,0.3,0.2,0.4c0.2,0.1,0.5,0.3,1,0.5s0.8,0.4,1,0.5c0.2,0.2,0.4,0.4,0.5,0.6S387.2,286.2,387.2,286.5z"/>
	<path class="st12" d="M396.1,286.1c0,0.7-0.3,1.3-0.8,1.7s-1.2,0.6-2.1,0.6c-0.8,0-1.6-0.2-2.2-0.5v-1.6c0.5,0.2,1,0.4,1.3,0.5
		c0.4,0.1,0.7,0.1,1,0.1c0.4,0,0.6-0.1,0.8-0.2c0.2-0.1,0.3-0.3,0.3-0.6c0-0.2,0-0.3-0.1-0.4c-0.1-0.1-0.2-0.2-0.4-0.3
		c-0.2-0.1-0.5-0.3-1-0.5s-0.8-0.4-1.1-0.7c-0.3-0.3-0.4-0.4-0.6-0.7c-0.1-0.3-0.2-0.6-0.2-1c0-0.7,0.2-1.2,0.7-1.6s1.1-0.6,2-0.6
		c0.4,0,0.8,0,1.2,0.1c0.4,0.1,0.8,0.2,1.2,0.4l-0.5,1.3c-0.4-0.2-0.8-0.3-1-0.4c-0.3-0.1-0.5-0.1-0.8-0.1s-0.6,0.1-0.7,0.2
		s-0.3,0.3-0.3,0.6c0,0.1,0,0.3,0.1,0.4s0.2,0.2,0.3,0.3c0.1,0.1,0.5,0.3,1.1,0.6c0.7,0.4,1.2,0.7,1.5,1.1
		C396.1,285.2,396.1,285.5,396.1,286.1z"/>
	<path class="st12" d="M402.9,288.2h-1.6v-3.5c0-0.9-0.3-1.3-1-1.3c-0.5,0-0.8,0.2-1,0.5c-0.2,0.3-0.3,0.8-0.3,1.5v2.8h-1.6v-8.4
		h1.6v1.7c0,0.1,0,0.4,0,0.9v0.5h0.1c0.4-0.6,0.9-0.9,1.7-0.9c0.7,0,1.2,0.2,1.6,0.6c0.4,0.4,0.5,0.9,0.5,1.6L402.9,288.2
		L402.9,288.2z"/>
	<path class="st12" d="M404.6,280.7c0-0.5,0.3-0.8,0.9-0.8s0.9,0.3,0.9,0.8c0,0.3-0.1,0.5-0.2,0.6s-0.4,0.2-0.7,0.2
		C404.9,281.5,404.6,281.2,404.6,280.7z M406.3,288.2h-1.6v-6h1.6V288.2z"/>
	<path class="st12" d="M411.3,288.3c-0.7,0-1.3-0.3-1.7-0.8h-0.1c0.1,0.5,0.1,0.8,0.1,0.9v2.4H408v-8.6h1.3l0.2,0.8h0.1
		c0.4-0.6,1-0.9,1.7-0.9s1.3,0.3,1.7,0.8c0.4,0.5,0.6,1.3,0.6,2.3c0,0.6-0.1,1.2-0.3,1.7c-0.2,0.5-0.5,0.8-0.8,1.1
		C412.2,288.2,411.7,288.3,411.3,288.3z M410.8,283.4c-0.4,0-0.7,0.1-0.9,0.4c-0.2,0.2-0.3,0.7-0.3,1.2v0.2c0,0.6,0.1,1.1,0.3,1.4
		s0.5,0.4,0.9,0.4c0.7,0,1.1-0.6,1.1-1.8c0-0.6-0.1-1-0.3-1.3C411.5,283.6,411.2,283.4,410.8,283.4z"/>
	<path class="st12" d="M418.2,288.3c-0.7,0-1.3-0.3-1.7-0.8h-0.1c0.1,0.5,0.1,0.8,0.1,0.9v2.4h-1.6v-8.6h1.3l0.2,0.8h0.1
		c0.4-0.6,1-0.9,1.7-0.9s1.3,0.3,1.7,0.8c0.4,0.5,0.6,1.3,0.6,2.3c0,0.6-0.1,1.2-0.3,1.7c-0.2,0.5-0.5,0.8-0.8,1.1
		C419.1,288.2,418.7,288.3,418.2,288.3z M417.8,283.4c-0.4,0-0.7,0.1-0.9,0.4c-0.2,0.2-0.3,0.7-0.3,1.2v0.2c0,0.6,0.1,1.1,0.3,1.4
		s0.5,0.4,0.9,0.4c0.7,0,1.1-0.6,1.1-1.8c0-0.6-0.1-1-0.3-1.3C418.4,283.6,418.1,283.4,417.8,283.4z"/>
	<path class="st12" d="M424.6,288.3c-1,0-1.7-0.3-2.3-0.8c-0.5-0.5-0.8-1.3-0.8-2.3s0.3-1.8,0.8-2.3s1.2-0.8,2.1-0.8
		c0.8,0,1.5,0.2,2,0.7s0.7,1.2,0.7,2v0.8h-3.9c0,0.5,0.2,0.8,0.4,1.1s0.6,0.4,1.1,0.4c0.4,0,0.7,0,1-0.1s0.7-0.2,1-0.4v1.3
		c-0.3,0.1-0.6,0.2-0.9,0.3C425.5,288.3,425.1,288.3,424.6,288.3z M424.4,283.3c-0.3,0-0.6,0.1-0.8,0.3c-0.2,0.2-0.3,0.5-0.3,0.9
		h2.3c0-0.4-0.1-0.7-0.3-0.9C425,283.4,424.7,283.3,424.4,283.3z"/>
	<path class="st12" d="M431.8,282.1c0.2,0,0.4,0,0.6,0l-0.1,1.5c-0.1,0-0.3-0.1-0.5-0.1c-0.5,0-0.9,0.1-1.2,0.4
		c-0.3,0.3-0.4,0.6-0.4,1.1v3.1h-1.6v-6h1.2l0.2,1h0.1c0.2-0.3,0.4-0.6,0.8-0.8C431,282.2,431.4,282.1,431.8,282.1z"/>
	<path class="st12" d="M437.6,286.5c0,0.6-0.2,1.1-0.6,1.4s-1.1,0.5-1.9,0.5c-0.4,0-0.8,0-1.1-0.1c-0.3-0.1-0.6-0.1-0.9-0.3v-1.4
		c0.3,0.1,0.6,0.3,1,0.4s0.7,0.1,1,0.1c0.6,0,0.9-0.2,0.9-0.5c0-0.1,0-0.2-0.1-0.3c-0.1-0.1-0.2-0.2-0.4-0.3
		c-0.2-0.1-0.5-0.2-0.8-0.4c-0.5-0.2-0.8-0.4-1-0.5c-0.2-0.2-0.4-0.4-0.5-0.6c-0.1-0.2-0.1-0.5-0.1-0.8c0-0.5,0.2-0.9,0.6-1.2
		s1-0.4,1.8-0.4c0.7,0,1.4,0.2,2.1,0.5l-0.5,1.2c-0.3-0.1-0.6-0.2-0.8-0.3c-0.3-0.1-0.5-0.1-0.8-0.1c-0.5,0-0.7,0.1-0.7,0.4
		c0,0.1,0.1,0.3,0.2,0.4c0.2,0.1,0.5,0.3,1,0.5s0.8,0.4,1,0.5c0.2,0.2,0.4,0.4,0.5,0.6C437.5,285.9,437.6,286.2,437.6,286.5z"/>
</g>
<g class="st10">
	<path class="st13" d="M356.7,354.6h-2v-9.5h5.5v1.7h-3.5v2.5h3.2v1.6h-3.2V354.6z"/>
	<path class="st13" d="M367,354.6l-0.3-0.9h-0.1c-0.2,0.3-0.5,0.6-0.9,0.8c-0.4,0.2-0.8,0.3-1.3,0.3c-0.9,0-1.5-0.2-1.9-0.7
		s-0.7-1.1-0.7-2v-4.8h2v4.3c0,0.5,0.1,0.9,0.3,1.2s0.5,0.4,0.9,0.4c0.6,0,1-0.2,1.2-0.6s0.4-1,0.4-1.8v-3.5h2v7.3H367z"/>
	<path class="st13" d="M377.3,354.6h-2v-4.3c0-0.5-0.1-0.9-0.3-1.2s-0.5-0.4-0.9-0.4c-0.6,0-1,0.2-1.2,0.6s-0.4,1-0.4,1.8v3.4h-2
		v-7.2h1.5l0.3,0.9h0.1c0.2-0.4,0.5-0.6,0.9-0.8c0.4-0.2,0.8-0.3,1.3-0.3c0.8,0,1.5,0.2,1.9,0.7s0.7,1.1,0.7,2v4.8H377.3z"/>
	<path class="st13" d="M382.4,354.8c-2.3,0-3.4-1.2-3.4-3.7c0-1.2,0.3-2.2,0.9-2.8c0.6-0.7,1.5-1,2.7-1c0.8,0,1.6,0.2,2.3,0.5
		l-0.6,1.5c-0.3-0.1-0.6-0.2-0.9-0.3c-0.3-0.1-0.5-0.1-0.8-0.1c-1,0-1.5,0.7-1.5,2.2c0,1.4,0.5,2.1,1.5,2.1c0.4,0,0.7-0.1,1.1-0.2
		c0.3-0.1,0.7-0.3,1-0.5v1.7c-0.3,0.2-0.6,0.3-1,0.4S382.8,354.8,382.4,354.8z"/>
	<path class="st13" d="M389.3,353.2c0.3,0,0.8-0.1,1.2-0.2v1.5c-0.5,0.2-1.1,0.3-1.8,0.3c-0.8,0-1.4-0.2-1.7-0.6
		c-0.4-0.4-0.5-1-0.5-1.8v-3.5h-1v-0.8l1.1-0.7l0.6-1.5h1.3v1.5h2v1.5h-2v3.5c0,0.3,0.1,0.5,0.2,0.6
		C388.8,353.1,389.1,353.2,389.3,353.2z"/>
	<path class="st13" d="M392,345.5c0-0.6,0.4-1,1.1-1s1.1,0.3,1.1,1c0,0.3-0.1,0.5-0.3,0.7c-0.2,0.2-0.5,0.3-0.8,0.3
		C392.3,346.4,392,346.1,392,345.5z M394,354.6h-2v-7.3h2V354.6z"/>
	<path class="st13" d="M402.7,351c0,1.2-0.3,2.1-0.9,2.8c-0.6,0.7-1.5,1-2.6,1c-0.7,0-1.3-0.2-1.8-0.5s-0.9-0.7-1.2-1.3
		s-0.4-1.2-0.4-2c0-1.2,0.3-2.1,0.9-2.8c0.6-0.7,1.5-1,2.6-1c0.7,0,1.3,0.2,1.8,0.5s0.9,0.7,1.2,1.3
		C402.6,349.5,402.7,350.2,402.7,351z M397.7,351c0,0.7,0.1,1.3,0.4,1.6c0.2,0.4,0.6,0.6,1.2,0.6c0.5,0,0.9-0.2,1.1-0.6
		s0.3-0.9,0.3-1.6s-0.1-1.3-0.4-1.6s-0.6-0.5-1.2-0.5c-0.5,0-0.9,0.2-1.1,0.5S397.7,350.2,397.7,351z"/>
	<path class="st13" d="M411.1,354.6h-2v-4.3c0-0.5-0.1-0.9-0.3-1.2s-0.5-0.4-0.9-0.4c-0.6,0-1,0.2-1.2,0.6s-0.4,1-0.4,1.8v3.4h-2
		v-7.2h1.5l0.3,0.9h0.1c0.2-0.4,0.5-0.6,0.9-0.8c0.4-0.2,0.8-0.3,1.3-0.3c0.8,0,1.5,0.2,1.9,0.7s0.7,1.1,0.7,2v4.8H411.1z"/>
</g>
<g class="st10">
	<path class="st11" d="M357.6,133.5V124h2v7.9h3.9v1.7L357.6,133.5L357.6,133.5z"/>
	<path class="st11" d="M369.6,133.5l-0.4-1h-0.1c-0.3,0.4-0.7,0.7-1,0.9c-0.4,0.2-0.8,0.2-1.4,0.2c-0.7,0-1.2-0.2-1.7-0.6
		c-0.4-0.4-0.6-1-0.6-1.7c0-0.8,0.3-1.3,0.8-1.7c0.5-0.4,1.4-0.6,2.4-0.6h1.3v-0.3c0-0.7-0.4-1.1-1.1-1.1c-0.6,0-1.3,0.2-2.1,0.5
		l-0.7-1.3c0.8-0.4,1.8-0.7,2.8-0.7s1.7,0.2,2.2,0.6s0.8,1.1,0.8,1.9v4.9C370.8,133.5,369.6,133.5,369.6,133.5z M369,130.1h-0.8
		c-0.6,0-1,0.1-1.3,0.3c-0.3,0.2-0.4,0.5-0.4,0.9c0,0.6,0.3,0.8,1,0.8c0.5,0,0.8-0.1,1.1-0.4c0.3-0.3,0.4-0.6,0.4-1.1L369,130.1
		L369,130.1z"/>
	<path class="st11" d="M379.6,133.5h-2v-4.2c0-0.5-0.1-0.9-0.3-1.2c-0.2-0.3-0.5-0.4-0.8-0.4c-0.5,0-0.9,0.2-1.1,0.6
		c-0.2,0.4-0.3,1-0.3,1.8v3.4h-2v-7.3h1.5l0.3,0.9h0.1c0.2-0.3,0.5-0.6,0.8-0.8c0.4-0.2,0.8-0.3,1.3-0.3c1.1,0,1.8,0.4,2.2,1.1h0.2
		c0.2-0.3,0.5-0.6,0.9-0.8s0.8-0.3,1.3-0.3c0.8,0,1.4,0.2,1.9,0.6c0.4,0.4,0.6,1.1,0.6,2v4.7h-2v-4c0-0.5-0.1-0.9-0.3-1.2
		c-0.2-0.3-0.5-0.4-0.8-0.4c-0.5,0-0.8,0.2-1.1,0.5c-0.2,0.3-0.4,0.9-0.4,1.7L379.6,133.5L379.6,133.5z"/>
	<path class="st11" d="M390.2,126.1c0.9,0,1.5,0.3,2,1s0.7,1.6,0.7,2.8c0,1.2-0.3,2.1-0.8,2.8s-1.2,1-2,1c-0.9,0-1.5-0.3-2-0.9H388
		l-0.3,0.8h-1.5v-10.1h2v2.4c0,0.3,0,0.8-0.1,1.4h0.1C388.6,126.5,389.3,126.1,390.2,126.1z M389.5,127.7c-0.5,0-0.8,0.2-1.1,0.5
		c-0.3,0.3-0.3,0.8-0.4,1.5v0.2c0,0.8,0.1,1.3,0.3,1.7c0.2,0.3,0.6,0.5,1.1,0.5c0.4,0,0.7-0.2,1-0.6c0.2-0.4,0.4-0.9,0.4-1.6
		c0-0.7-0.1-1.3-0.4-1.6C390.3,127.9,390,127.7,389.5,127.7z"/>
	<path class="st11" d="M396.9,133.6c-0.9,0-1.5-0.3-2-1s-0.7-1.6-0.7-2.8c0-1.2,0.2-2.1,0.7-2.8s1.2-1,2.1-1s1.6,0.4,2.1,1.1h0.1
		c-0.1-0.5-0.1-1-0.1-1.5v-2.3h2v10.1h-1.5l-0.4-0.9h-0.1C398.5,133.3,397.8,133.6,396.9,133.6z M397.6,132.1c0.5,0,0.9-0.1,1.1-0.4
		c0.2-0.3,0.4-0.8,0.4-1.5V130c0-0.8-0.1-1.3-0.4-1.7c-0.2-0.3-0.6-0.5-1.2-0.5c-0.4,0-0.8,0.2-1,0.6c-0.2,0.4-0.4,0.9-0.4,1.6
		c0,0.7,0.1,1.3,0.4,1.6S397.1,132.1,397.6,132.1z"/>
	<path class="st11" d="M407.6,133.5l-0.4-1h-0.1c-0.3,0.4-0.7,0.7-1,0.9c-0.4,0.2-0.8,0.2-1.4,0.2c-0.7,0-1.2-0.2-1.7-0.6
		c-0.4-0.4-0.6-1-0.6-1.7c0-0.8,0.3-1.3,0.8-1.7c0.5-0.4,1.4-0.6,2.4-0.6h1.3v-0.3c0-0.7-0.4-1.1-1.1-1.1c-0.6,0-1.3,0.2-2.1,0.5
		l-0.7-1.3c0.8-0.4,1.8-0.7,2.8-0.7s1.7,0.2,2.2,0.6s0.8,1.1,0.8,1.9v4.9C408.8,133.5,407.6,133.5,407.6,133.5z M407,130.1h-0.8
		c-0.6,0-1,0.1-1.3,0.3s-0.4,0.5-0.4,0.9c0,0.6,0.3,0.8,1,0.8c0.5,0,0.8-0.1,1.1-0.4c0.3-0.3,0.4-0.6,0.4-1.1L407,130.1L407,130.1z"
		/>
</g>
<g class="st10">
	<path class="st13" d="M207.9,246.2h-5.5v-9.5h5.5v1.7h-3.5v2.1h3.2v1.7h-3.2v2.5h3.5V246.2z"/>
	<path class="st13" d="M211.4,246.2l-2.8-7.3h2.1l1.4,4.1c0.2,0.5,0.3,1,0.3,1.5l0,0c0-0.4,0.1-0.9,0.3-1.5l1.4-4.1h2.1l-2.8,7.3
		H211.4z"/>
	<path class="st13" d="M220.6,246.3c-1.2,0-2.1-0.3-2.7-1c-0.7-0.6-1-1.6-1-2.7c0-1.2,0.3-2.2,0.9-2.8s1.5-1,2.5-1s1.8,0.3,2.4,0.9
		c0.6,0.6,0.9,1.4,0.9,2.4v1h-4.7c0,0.6,0.2,1,0.5,1.3s0.8,0.5,1.3,0.5c0.4,0,0.9,0,1.2-0.1c0.4-0.1,0.8-0.2,1.2-0.4v1.5
		c-0.3,0.2-0.7,0.3-1.1,0.4C221.6,246.3,221.2,246.3,220.6,246.3z M220.3,240.2c-0.4,0-0.8,0.1-1,0.4c-0.2,0.3-0.4,0.6-0.4,1.1h2.8
		c0-0.5-0.1-0.9-0.4-1.1C221.1,240.3,220.7,240.2,220.3,240.2z"/>
	<path class="st13" d="M231.9,246.2h-2v-4.3c0-0.5-0.1-0.9-0.3-1.2s-0.5-0.4-0.9-0.4c-0.6,0-1,0.2-1.2,0.6c-0.2,0.4-0.4,1-0.4,1.8
		v3.4h-2v-7.3h1.5l0.3,0.9h0.1c0.2-0.4,0.5-0.6,0.9-0.8s0.8-0.3,1.3-0.3c0.8,0,1.5,0.2,1.9,0.7s0.7,1.1,0.7,2L231.9,246.2
		L231.9,246.2z"/>
	<path class="st13" d="M237,244.7c0.3,0,0.8-0.1,1.2-0.2v1.5c-0.5,0.2-1.1,0.3-1.8,0.3c-0.8,0-1.4-0.2-1.7-0.6
		c-0.4-0.4-0.5-1-0.5-1.8v-3.5h-1v-0.8l1.1-0.7l0.6-1.5h1.3v1.5h2v1.5h-2v3.5c0,0.3,0.1,0.5,0.2,0.6
		C236.5,244.7,236.7,244.7,237,244.7z"/>
	<path class="st13" d="M244.8,244c0,0.7-0.3,1.3-0.8,1.7s-1.3,0.6-2.3,0.6c-0.5,0-1,0-1.4-0.1s-0.7-0.2-1-0.3v-1.6
		c0.4,0.2,0.8,0.3,1.2,0.4s0.9,0.2,1.2,0.2c0.7,0,1.1-0.2,1.1-0.6c0-0.2,0-0.3-0.1-0.4c-0.1-0.1-0.3-0.2-0.5-0.3s-0.5-0.3-0.9-0.4
		c-0.6-0.2-1-0.5-1.2-0.7c-0.3-0.2-0.5-0.4-0.6-0.7s-0.2-0.6-0.2-1c0-0.6,0.3-1.1,0.8-1.5s1.2-0.5,2.1-0.5c0.9,0,1.7,0.2,2.6,0.6
		l-0.6,1.4c-0.4-0.2-0.7-0.3-1-0.4s-0.6-0.2-1-0.2c-0.6,0-0.9,0.2-0.9,0.5c0,0.2,0.1,0.3,0.3,0.5c0.2,0.1,0.6,0.3,1.2,0.6
		c0.6,0.2,1,0.4,1.2,0.6c0.3,0.2,0.5,0.4,0.6,0.7C244.7,243.3,244.8,243.6,244.8,244z"/>
</g>
<g>
	<g>
		<path class="st14" d="M110.6,331h-7.4c-0.6,0-1.1,0.6-1.1,1.2l0.6,5.2c0.1,0.5,0.5,1,1.1,1h6.2c0.5,0,1-0.4,1.1-1l0.6-5.2
			C111.7,331.5,111.2,331,110.6,331z"/>
		<path class="st14" d="M103.2,302.3h7.4c0.6,0,1.1-0.6,1.1-1.2l-0.6-5.2c-0.1-0.5-0.5-1-1.1-1h-6.3c-0.5,0-1,0.4-1.1,1l-0.6,5.2
			C102,301.8,102.5,302.3,103.2,302.3z"/>
		<path class="st14" d="M92.5,320.4V313c0-0.6-0.6-1.1-1.2-1.1l-5.2,0.6c-0.5,0.1-1,0.5-1,1.1v6.3c0,0.5,0.4,1,1,1.1l5.2,0.6
			C92,321.5,92.5,321,92.5,320.4z"/>
		<path class="st14" d="M121.2,312.9v7.4c0,0.6,0.6,1.1,1.2,1.1l5.2-0.6c0.5-0.1,1-0.5,1-1.1v-6.3c0-0.5-0.4-1-1-1.1l-5.2-0.6
			C121.8,311.8,121.2,312.3,121.2,312.9z"/>
		<path class="st14" d="M94.1,309.2l5.3-5.3c0.5-0.5,0.4-1.2-0.1-1.6l-4.1-3.3c-0.4-0.3-1-0.3-1.4,0.1l-4.4,4.4
			c-0.4,0.4-0.4,1-0.1,1.4l3.3,4.1C92.9,309.6,93.7,309.6,94.1,309.2z"/>
		<path class="st14" d="M119.6,324.2l-5.3,5.3c-0.5,0.5-0.4,1.2,0.1,1.6l4.1,3.3c0.4,0.3,1,0.3,1.4-0.1l4.4-4.4
			c0.4-0.4,0.4-1,0.1-1.4l-3.3-4.1C120.8,323.8,120.1,323.7,119.6,324.2z"/>
		<path class="st14" d="M114.4,303.9l5.3,5.3c0.5,0.5,1.2,0.4,1.6-0.1l3.3-4.1c0.3-0.4,0.3-1-0.1-1.4l-4.4-4.4
			c-0.4-0.4-1-0.4-1.4-0.1l-4.1,3.3C114,302.7,113.9,303.5,114.4,303.9z"/>
		<path class="st14" d="M99.4,329.4l-5.3-5.3c-0.5-0.5-1.2-0.4-1.6,0.1l-3.3,4.1c-0.3,0.4-0.3,1,0.1,1.4l4.4,4.4
			c0.4,0.4,1,0.4,1.4,0.1l4.1-3.3C99.8,330.6,99.8,329.9,99.4,329.4z"/>
	</g>
	<g>
		<path class="st15" d="M106.9,300.7c-8.8,0-16,7.1-16,16c0,8.8,7.1,16,16,16c8.8,0,16-7.1,16-16
			C122.8,307.8,115.7,300.7,106.9,300.7z M106.9,330c-7.3,0-13.3-6-13.3-13.3s6-13.3,13.3-13.3s13.3,6,13.3,13.3
			C120.2,324,114.2,330,106.9,330z"/>
		<path class="st16" d="M106.9,303.4c-7.3,0-13.3,6-13.3,13.3s6,13.3,13.3,13.3s13.3-6,13.3-13.3
			C120.2,309.3,114.2,303.4,106.9,303.4z"/>
	</g>
	<path class="st13" d="M112.8,314.9h-3.6c-0.3,0-0.5-0.2-0.5-0.5v-3.6c0-1-0.8-1.8-1.8-1.8s-1.8,0.8-1.8,1.8v3.6
		c0,0.3-0.2,0.5-0.5,0.5H101c-1,0-1.8,0.8-1.8,1.8s0.8,1.8,1.8,1.8h3.6c0.3,0,0.5,0.2,0.5,0.5v3.6c0,1,0.8,1.8,1.8,1.8
		s1.8-0.8,1.8-1.8V319c0-0.3,0.2-0.5,0.5-0.5h3.6c1,0,1.8-0.8,1.8-1.8C114.6,315.7,113.8,314.9,112.8,314.9z"/>
</g>
<g id="icon_product_features_functionbeat">
	<path id="Fill-1" class="st11" d="M396.3,252.2v-2.5c2.9,0,5.3-2.4,5.3-5.3c0-2.2-1.3-4.1-3.4-4.9l-1-0.4l0.2-1
		c0.1-0.8,0.2-1.5,0.2-2.2c0-6.9-5.6-12.5-12.5-12.5c-5.8,0-10.8,3.9-12.1,9.6l-0.2,0.9l-0.9,0.1c-4.1,0.4-7.1,3.8-7.1,7.9
		c0,4.4,3.5,7.9,7.9,7.9v2.5c-5.7,0-10.4-4.7-10.4-10.4c0-5.1,3.6-9.3,8.5-10.2c1.9-6.3,7.7-10.6,14.3-10.6c8.3,0,15,6.7,15,15
		c0,0.6,0,1.1-0.1,1.7c2.5,1.4,4,3.9,4,6.8C404.1,248.7,400.6,252.2,396.3,252.2"/>
	<polygon id="Fill-4" class="st14" points="379.2,260.1 382.3,260.1 392.6,244.4 380.1,244.4 388.3,231.3 385.2,231.3 375.4,247 
		387.8,247 	"/>
</g>
<g>
	<path pointer-events="none" class="st17" d="M106.7,86.6l-22.1-11v-4.5l4.4-0.6v-24l3.7-1.4l2.2,0.5v-6.1l5.2-2.6l17.6,6.9v19.8
		h4.9v6.6l6.2,0.9v4.5L106.7,86.6z"/>
	<path pointer-events="none" class="st18" d="M92.7,71.8L89,70.7V46.5l3.7-1.4V71.8z M100,74.1l-5.2-1.5V39.5l5.2-2.6V74.1z
		 M106.7,76l-4.7-1.4v-10l4.7,0.5V76z M106.7,86.6l-22.1-11v-4.5l22.1,7.8V86.6z"/>
	<path pointer-events="none" class="st19" d="M122.5,63.6l-15.9,1.5l-4.7-0.5l15.7-1H122.5z M128.7,71.1l-22.1,7.8l-22.1-7.8
		l4.4-0.6v0.3l3.7,1.1l2.2-0.3v1l5.2,1.5l1.9-0.4v0.9l4.7,1.4l15.9-4.8v-1.1L128.7,71.1z"/>
</g>
<g>
	<path class="st20" d="M126.9,225.4h-0.7l-19.9-5.9v-0.3v-9.9l20.6,10.3V225.4"/>
	<path class="st21" d="M106.3,219.8v-10.5l-20.6,10.3v29.1l0,0l0,0l20.6,10.3l0.1-0.1v-9.8V249l-1.3-0.9l-15.9-4.7l0.1-18.4
		L106.3,219.8"/>
	<path class="st20" d="M109.4,240.7l-21,3v-19.1l21,3V240.7"/>
	<path class="st21" d="M98.8,239.5l7.6,1v-12.7l-7.6,1V239.5 M91.1,238.6l4.9,0.6v-10l-4.9,0.6V238.6"/>
	<path class="st22" d="M88.4,224.6l18-5.4l20.6,6.2l-17.5,2.2L88.4,224.6"/>
	<path class="st20" d="M126.9,237.9l-20.6,2.6v-12.6l20.6,2.6V237.9 M126.9,242.9h-0.4l-20.1,6.1l-0.1,0.1v9.9l20.6-10.3V242.9"/>
	<path class="st23" d="M88.4,243.7l18,5.4l20.6-6.2l-17.5-2.2L88.4,243.7"/>
</g>
<g>
	<path class="st24" d="M364.2,106.3l2.6,1.3l0.4-0.8V76.4l-0.4-0.6l-2.6,1.3V106.3"/>
	<path class="st25" d="M371.9,77.1l-5-1.2v31.8l5-1.2V77.1"/>
	<path class="st26" d="M387.3,79.5l3.6-1.9l11.9,4.6l-3.2,0.4L387.3,79.5"/>
	<path class="st27" d="M387.5,103.9l3.5,1.9l11.9-4.6l-3.2-0.4L387.5,103.9"/>
	<path class="st24" d="M388.4,98.8l6.3,0.8l0.4-0.6V84.5l-0.4-0.8l-6.3,0.8V98.8 M369.9,74.2l3.9-1.9l0.4,0.8v37.2l-0.4,0.9
		l-3.9-1.9V74.2"/>
	<path class="st25" d="M381.7,108.5l-7.9,2.6V72.3l7.9,2.6V108.5"/>
	<path class="st24" d="M378.6,113.5l6.1,3.1l0.6-0.7V67.8l-0.6-0.9l-6.1,3.1V113.5 M399.6,82.7l3.2-0.4l0.3,0.4v18.1l-0.3,0.5
		l-3.2-0.4V82.7"/>
	<path class="st25" d="M394.7,83.8v16l6.6-8L394.7,83.8"/>
	<path class="st25" d="M402.8,75.8l-18-9v49.7l20.6-10.2V77.2L402.8,75.8z M402.8,101.3l-11.8,3.5V78.6l11.8,3.5V101.3z"/>
</g>
<g>
	<g>
		<path class="st28" d="M86.4,151l20.5,9.4l20.5-9.4l-20.5-0.8L86.4,151z"/>
		<path class="st24" d="M106.9,123.4l-20.5,10.2v14.4H111v-22.6L106.9,123.4z"/>
		<path class="st28" d="M86.4,158.3l20.5,14.5l20.5-14.5l-20.5-3L86.4,158.3z"/>
		<g>
			<path class="st24" d="M106.9,148.1h10.8v-15.4l-3.2-1.3l-7.7,2.2L106.9,148.1z"/>
			<path class="st24" d="M114.6,148.1h8.4v-10l-2.4-0.7l-6,1L114.6,148.1z"/>
			<path class="st24" d="M120.5,136.6v11.5h6.8l0.1-11.5l-2.1-0.8L120.5,136.6z"/>
		</g>
		<path class="st29" d="M106.9,123.4v24.7h4.1v-22.6L106.9,123.4z M117.7,132.7l-3.2-1.3v16.7h3.2V132.7z M122.9,138.1l-2.4-0.7
			v10.7h2.4V138.1z M125.3,148.1h2.1v-11.5l-2.1-0.8V148.1z M106.8,153v7.4l20.5-5.1V151L106.8,153z M106.8,165.5v7.3l20.5-10.3
			v-4.3L106.8,165.5z"/>
		<path class="st24" d="M86.4,162.6l20.5,10.2v-7.3l-20.5-7.2L86.4,162.6z M86.4,155.3l20.5,5.1V153l-20.5-2V155.3z"/>
	</g>
	<g>
		<path class="st11" d="M91.9,189.2h-2.3l-2.5-4l-0.9,0.6v3.4h-2v-9.5h2v4.4l0.8-1.1l2.6-3.2h2.2l-3.3,4.2L91.9,189.2z"/>
		<path class="st11" d="M92.9,180c0-0.6,0.4-1,1.1-1s1.1,0.3,1.1,1c0,0.3-0.1,0.5-0.3,0.7c-0.2,0.2-0.5,0.3-0.8,0.3
			C93.2,181,92.9,180.7,92.9,180z M95,189.2h-2v-7.3h2V189.2z"/>
		<path class="st11" d="M103.8,189.2h-2V185c0-0.5-0.1-0.9-0.3-1.2c-0.2-0.3-0.5-0.4-0.9-0.4c-0.6,0-1,0.2-1.2,0.6
			c-0.2,0.4-0.4,1-0.4,1.9v3.4h-2v-7.3h1.5l0.3,0.9h0.1c0.2-0.4,0.5-0.6,0.9-0.8s0.8-0.3,1.3-0.3c0.8,0,1.5,0.2,1.9,0.7
			c0.4,0.5,0.7,1.1,0.7,2V189.2z"/>
		<path class="st11" d="M109.1,189.4c-1.2,0-2.1-0.3-2.8-1c-0.7-0.6-1-1.6-1-2.8c0-1.2,0.3-2.2,0.9-2.8c0.6-0.7,1.5-1,2.5-1
			c1,0,1.8,0.3,2.4,0.9c0.6,0.6,0.9,1.4,0.9,2.4v1h-4.7c0,0.6,0.2,1,0.5,1.3s0.8,0.5,1.3,0.5c0.4,0,0.9,0,1.2-0.1
			c0.4-0.1,0.8-0.2,1.2-0.4v1.5c-0.3,0.2-0.7,0.3-1.1,0.4C110.2,189.3,109.7,189.4,109.1,189.4z M108.9,183.2c-0.4,0-0.8,0.1-1,0.4
			c-0.2,0.3-0.4,0.6-0.4,1.1h2.8c0-0.5-0.1-0.9-0.4-1.1S109.3,183.2,108.9,183.2z"/>
		<path class="st11" d="M118.8,187.1c0,0.7-0.3,1.3-0.8,1.7c-0.5,0.4-1.3,0.6-2.3,0.6c-0.5,0-1,0-1.4-0.1c-0.4-0.1-0.7-0.2-1.1-0.3
			v-1.6c0.4,0.2,0.8,0.3,1.3,0.4c0.5,0.1,0.9,0.2,1.2,0.2c0.7,0,1.1-0.2,1.1-0.6c0-0.2,0-0.3-0.1-0.4c-0.1-0.1-0.3-0.2-0.5-0.3
			c-0.2-0.1-0.5-0.3-0.9-0.4c-0.6-0.2-1-0.5-1.2-0.7c-0.3-0.2-0.5-0.4-0.6-0.7c-0.1-0.3-0.2-0.6-0.2-1c0-0.6,0.3-1.2,0.8-1.5
			c0.5-0.4,1.2-0.5,2.1-0.5c0.9,0,1.7,0.2,2.6,0.6l-0.6,1.4c-0.4-0.2-0.7-0.3-1-0.4c-0.3-0.1-0.6-0.1-1-0.1c-0.6,0-0.9,0.2-0.9,0.5
			c0,0.2,0.1,0.3,0.3,0.5c0.2,0.1,0.6,0.3,1.2,0.6c0.6,0.2,1,0.4,1.3,0.6c0.3,0.2,0.5,0.4,0.6,0.7
			C118.8,186.4,118.8,186.7,118.8,187.1z"/>
		<path class="st11" d="M120.3,180c0-0.6,0.4-1,1.1-1s1.1,0.3,1.1,1c0,0.3-0.1,0.5-0.3,0.7c-0.2,0.2-0.5,0.3-0.8,0.3
			C120.7,181,120.3,180.7,120.3,180z M122.4,189.2h-2v-7.3h2V189.2z"/>
		<path class="st11" d="M129.6,187.1c0,0.7-0.3,1.3-0.8,1.7c-0.5,0.4-1.3,0.6-2.3,0.6c-0.5,0-1,0-1.4-0.1c-0.4-0.1-0.7-0.2-1.1-0.3
			v-1.6c0.4,0.2,0.8,0.3,1.3,0.4c0.5,0.1,0.9,0.2,1.2,0.2c0.7,0,1.1-0.2,1.1-0.6c0-0.2,0-0.3-0.1-0.4c-0.1-0.1-0.3-0.2-0.5-0.3
			c-0.2-0.1-0.5-0.3-0.9-0.4c-0.6-0.2-1-0.5-1.2-0.7c-0.3-0.2-0.5-0.4-0.6-0.7c-0.1-0.3-0.2-0.6-0.2-1c0-0.6,0.3-1.2,0.8-1.5
			c0.5-0.4,1.2-0.5,2.1-0.5c0.9,0,1.7,0.2,2.6,0.6l-0.6,1.4c-0.4-0.2-0.7-0.3-1-0.4c-0.3-0.1-0.6-0.1-1-0.1c-0.6,0-0.9,0.2-0.9,0.5
			c0,0.2,0.1,0.3,0.3,0.5c0.2,0.1,0.6,0.3,1.2,0.6c0.6,0.2,1,0.4,1.3,0.6c0.3,0.2,0.5,0.4,0.6,0.7
			C129.5,186.4,129.6,186.7,129.6,187.1z"/>
	</g>
</g>
</svg>
